<?xml version="1.0" encoding="utf-8"?>
<!-- Generator: Adobe Illustrator 21.1.0, SVG Export Plug-In . SVG Version: 6.00 Build 0)  -->
<svg version="1.1" id="Layer_1" xmlns="http://www.w3.org/2000/svg" xmlns:xlink="http://www.w3.org/1999/xlink" x="0px" y="0px"
	 viewBox="0 0 54 54" style="enable-background:new 0 0 54 54;" xml:space="preserve">
<g>
	<rect x="11.6" y="33.2" width="21.5" height="4.6"/>
	<path d="M47,16.2H32.4l-2.8-6.9C29,7.9,27.6,7,26.1,7H7c-2.6,0-4.6,2-4.6,4.6v9.2v12.3v9.2C2.4,45,4.4,47,7,47h40
		c2.6,0,4.6-2,4.6-4.6V20.8C51.6,18.2,49.6,16.2,47,16.2z M7,11.6h18.5l1.8,4.6H7V11.6z M47,42.4H7v-9.2V20.8l0,0h25.4l0,0H47V42.4z
		"/>
</g>
</svg>
