<?xml version="1.0" encoding="utf-8"?>
<!-- Generator: Adobe Illustrator 21.1.0, SVG Export Plug-In . SVG Version: 6.00 Build 0)  -->
<svg version="1.1" id="Layer_1" xmlns="http://www.w3.org/2000/svg" xmlns:xlink="http://www.w3.org/1999/xlink" x="0px" y="0px"
	 viewBox="0 0 62 62" style="enable-background:new 0 0 62 62;" xml:space="preserve">
<g>
	<rect x="21" y="35" width="14" height="3"/>
	<path d="M44,24h-9.5l-1.8-4.5c-0.4-0.9-1.3-1.5-2.3-1.5H18c-1.7,0-3,1.3-3,3v6v8v6c0,1.7,1.3,3,3,3h26c1.7,0,3-1.3,3-3V27
		C47,25.3,45.7,24,44,24z M18,21h12l1.2,3H18V21z M44,41H18v-6v-8l0,0h16.5l0,0H44V41z"/>
</g>
</svg>
