<?xml version="1.0" encoding="utf-8"?>
<!-- Generator: Adobe Illustrator 21.1.0, SVG Export Plug-In . SVG Version: 6.00 Build 0)  -->
<svg version="1.1" id="Layer_1" xmlns="http://www.w3.org/2000/svg" xmlns:xlink="http://www.w3.org/1999/xlink" x="0px" y="0px"
	 viewBox="0 0 54 54" style="enable-background:new 0 0 54 54;" xml:space="preserve">
<g>
	<path d="M21.2,2H8.7C7.5,2,6.3,3.1,6.3,4.4v45.2c0,1.2,1.1,2.4,2.4,2.4h12.5c1.2,0,2.4-1.1,2.4-2.4V4.4C23.6,3.1,22.5,2,21.2,2z
		 M18.9,47.2h-7.8V41h4.8v-3.1h-4.8v-3.1h3.1v-3.1h-3.1v-3.1h4.7v-3.1h-4.8v-3.1h3.1v-3.1h-3.1V16h4.7v-3.1h-4.8V6.6h7.8V47.2z"/>
	<path d="M47.8,17.6l0.5-0.2L42.1,4.9c-0.2-0.8-1.1-1.2-2-1.2s-1.8,0.5-2,1.2l-6.2,12.5l0.5,0.2h-0.8v28.9c0,3,2.5,5.5,5.5,5.5h6.2
		c3,0,5.5-2.5,5.5-5.5V17.6H47.8z M43.8,41h-7.8V22.3h7.8V41z M40,11.2l3.2,6.4h-6.4L40,11.2z M43.1,47.2h-6.2
		c-0.5,0-0.7-0.2-0.7-0.7v-0.8h7.8v0.8C43.8,47,43.6,47.2,43.1,47.2z"/>
</g>
</svg>
