<?xml version="1.0" encoding="utf-8"?>
<!-- Generator: Adobe Illustrator 21.1.0, SVG Export Plug-In . SVG Version: 6.00 Build 0)  -->
<svg version="1.1" id="Layer_1" xmlns="http://www.w3.org/2000/svg" xmlns:xlink="http://www.w3.org/1999/xlink" x="0px" y="0px"
	 viewBox="0 0 62 62" style="enable-background:new 0 0 62 62;" xml:space="preserve">
<path d="M46,24h-8v-3c0-1.7-1.3-3-3-3h-8c-1.7,0-3,1.3-3,3v3h-8c-1.7,0-3,1.3-3,3v14c0,1.7,1.3,3,3,3h30c1.7,0,3-1.3,3-3V27
	C49,25.3,47.7,24,46,24z M27,22c0-0.6,0.4-1,1-1h6c0.6,0,1,0.4,1,1v2h-8V22z M38,27v14H24V27H38z M16,40V28c0-0.6,0.4-1,1-1h4v14h-4
	C16.4,41,16,40.6,16,40z M46,40c0,0.6-0.4,1-1,1h-4V27h4c0.6,0,1,0.4,1,1V40z"/>
</svg>
