<?xml version="1.0" encoding="utf-8"?>
<!-- Generator: Adobe Illustrator 21.1.0, SVG Export Plug-In . SVG Version: 6.00 Build 0)  -->
<svg version="1.1" id="Layer_1" xmlns="http://www.w3.org/2000/svg" xmlns:xlink="http://www.w3.org/1999/xlink" x="0px" y="0px"
	 viewBox="0 0 54 54" style="enable-background:new 0 0 54 54;" xml:space="preserve">
<path d="M49.5,16.5h-12V12c0-2.5-1.9-4.5-4.5-4.5H21c-2.6,0-4.5,2-4.5,4.5v4.5h-12C2,16.5,0,18.4,0,21v21c0,2.6,2,4.5,4.5,4.5h45
	c2.6,0,4.5-1.9,4.5-4.5V21C54,18.4,52.1,16.5,49.5,16.5z M21,13.5c0-0.9,0.6-1.5,1.5-1.5h9c0.9,0,1.5,0.6,1.5,1.5v3H21V13.5z
	 M37.5,21v21h-21V21H37.5z M4.5,40.5v-18C4.5,21.6,5.1,21,6,21h6v21H6C5.1,42,4.5,41.4,4.5,40.5z M49.5,40.5c0,0.9-0.6,1.5-1.5,1.5
	h-6V21h6c0.9,0,1.5,0.6,1.5,1.5V40.5z"/>
</svg>
