<?xml version="1.0" encoding="utf-8"?>
<!-- Generator: Adobe Illustrator 21.1.0, SVG Export Plug-In . SVG Version: 6.00 Build 0)  -->
<svg version="1.1" id="Layer_1" xmlns="http://www.w3.org/2000/svg" xmlns:xlink="http://www.w3.org/1999/xlink" x="0px" y="0px"
	 viewBox="0 0 62 62" style="enable-background:new 0 0 62 62;" xml:space="preserve">
<g>
	<path d="M27.5,15h-8c-0.8,0-1.5,0.7-1.5,1.5v29c0,0.8,0.7,1.5,1.5,1.5h8c0.8,0,1.5-0.7,1.5-1.5v-29C29,15.7,28.3,15,27.5,15z
		 M26,44h-5v-4h3v-2h-3v-2h2v-2h-2v-2h3v-2h-3v-2h2v-2h-2v-2h3v-2h-3v-4h5V44z"/>
	<path d="M44.5,25l0.3-0.2l-4-8c-0.2-0.5-0.7-0.8-1.3-0.8s-1.1,0.3-1.3,0.8l-4,8l0.3,0.2H34v18.5c0,1.9,1.6,3.5,3.5,3.5h4
		c1.9,0,3.5-1.6,3.5-3.5V25H44.5z M42,40h-5V28h5V40z M39.5,20.9l2.1,4.1h-4.1L39.5,20.9z M41.5,44h-4c-0.3,0-0.5-0.2-0.5-0.5V43h5
		v0.5C42,43.8,41.8,44,41.5,44z"/>
</g>
</svg>
